OpenSim_Sub10_CSStiffKnee_GRF.mot
version=1
nRows=35
nColumns=19
inDegrees=no
endheader
time	lFx	lFy	lFz	lCOPx	lCOPy	lCOPz	rFx	rFy	rFz	rCOPx	rCOPy	rCOPz	lMx	lMy	lMz	rMx	rMy	rMz
40.87000000	43.48768884	417.40452899	38.62563455	0.82772297	0	-0.60151488	-0.69901987	-3.50611937	-0.53518548	-0.03471783	0	0.01056274	0	5.07213272	0	0	0.05431396	-0.00000000
40.88000000	40.15958795	364.56074276	31.96964968	0.82612404	0	-0.60247978	-5.77690487	-2.33044395	-0.45391353	0.02936363	0	-0.00772259	0	5.02086613	0	0	0.12227174	0
40.89000000	34.57683348	305.93572714	25.23319884	0.82909827	0	-0.60607982	-14.88567357	7.91698475	0.46361222	0.22146522	0	-0.06367498	0	4.84719848	0	0	0.16806040	0.00000000
40.90000000	27.17845741	245.31945531	18.89829079	0.83600480	0	-0.61241478	-25.21787095	37.27831238	3.01091075	0.56608831	0	-0.16548990	0	4.55873256	0	0	0.05043380	0
40.91000000	18.71805574	186.79505512	13.29394420	0.83999376	0	-0.61672451	-30.84214464	98.82017085	7.38565808	0.92519773	0	-0.27282428	0	4.16452460	0	0	-0.38744171	-0.00000000
40.92000000	9.98377330	133.82368194	8.70003913	0.82211317	0	-0.60421813	-27.81234551	199.78276668	12.02184950	1.14410765	0	-0.33533537	0	3.61048241	0	0	-0.81784648	0.00000000
40.93000000	1.91370895	88.90494304	5.14231450	0.74714099	0	-0.54809875	-25.57905191	325.80760821	11.61832818	1.22771441	0	-0.35609980	0	2.86366940	0	0	-0.69655353	0
40.94000000	-4.52960957	53.18527458	2.48551643	0.57896765	0	-0.42223227	-36.75587582	446.22817139	0.91735096	1.23775865	0	-0.35553084	0	1.93176908	0	0	-0.34536595	-0.00000000
40.95000000	-8.55002305	26.95928551	0.79688773	0.33779285	0	-0.24353129	-60.41900100	539.75098431	-15.53411219	1.22655561	0	-0.34879519	0	0.94989196	0	0	-0.41794497	0
40.96000000	-9.34716078	9.82157284	-0.21014048	0.12578422	0	-0.08911592	-89.65665606	603.46960657	-28.71126285	1.21801307	0	-0.34256566	0	0.26638183	0	0	-0.71802738	0.00000000
40.97000000	-7.92629969	0.68744560	-0.66530608	0.01238536	0	-0.00766429	-119.01769166	645.38883617	-38.59991383	1.21586966	0	-0.33841054	0	-0.03561992	0	0	-0.78833885	0
40.98000000	-6.43054914	-2.43722307	-0.70789340	-0.02318087	0	0.01731908	-142.04276696	675.63282759	-48.58781506	1.21699599	0	-0.33595177	0	-0.09898471	0	0	-1.27321527	0
40.99000000	-5.64827422	-2.50052431	-0.63910203	-0.02196600	0	0.01599232	-154.94272117	700.87008007	-57.74466273	1.21782740	0	-0.33432857	0	-0.07045599	0	0	-1.84371431	-0.00000000
41	-5.45676941	-1.69353790	-0.49699360	-0.01160641	0	0.00833339	-157.59823940	721.94491130	-64.70969613	1.21657483	0	-0.33309749	0	-0.03073158	0	0	-2.39162128	0
41.01000000	-5.51229265	-1.01491752	-0.42114837	-0.00356984	0	0.00250493	-152.09144182	736.63982455	-68.50741073	1.21319469	0	-0.33214546	0	-0.00621003	0	0	-2.82362980	-0.00000000
41.02000000	-5.61645950	-0.62365679	-0.36339625	0.00018111	0	-0.00017700	-141.04615367	742.80363873	-68.92077902	1.20828976	0	-0.33138938	0	0.00309502	0	0	-3.16451507	0.00000000
41.03000000	-5.71638939	-0.42006329	-0.33412960	0.00108754	0	-0.00080339	-127.12255928	739.25139578	-67.08268244	1.20267043	0	-0.33073327	0	0.00413443	0	0	-3.43030102	0
41.04000000	-5.80327440	-0.34903550	-0.31110501	0.00082954	0	-0.00060140	-112.67226076	725.79073352	-64.64010613	1.19691380	0	-0.33007892	0	0.00251897	0	0	-3.66802118	0
41.05000000	-5.87724445	-0.41653666	-0.27029876	0.00038237	0	-0.00027327	-98.96992620	703.49409203	-62.33743346	1.19132965	0	-0.32934056	0	0.00094168	0	0	-3.90593769	0
41.06000000	-5.94416785	-0.47455686	-0.22257628	0.00008969	0	-0.00006184	-86.26217422	674.87516743	-60.07597595	1.18594029	0	-0.32848887	0	0.00009534	0	0	-4.07419371	0
41.07000000	-6.01862187	-0.42434214	-0.14013926	-0.00002849	0	0.00002218	-74.75153862	643.37814802	-57.55273263	1.18081357	0	-0.32751760	0	-0.00017143	0	0	-4.08566649	0
41.08000000	-6.08051141	-0.38971237	-0.09467293	-0.00004664	0	0.00003420	-64.95264986	611.94461361	-55.06005795	1.17587286	0	-0.32641477	0	-0.00016344	0	0	-4.04042966	0
41.09000000	-6.13615455	-0.40447712	-0.06395362	-0.00003011	0	0.00002174	-56.95422866	582.09058553	-53.47909105	1.17100987	0	-0.32518574	0	-0.00008663	0	0	-4.00964074	-0.00000000
41.10000000	-6.20346889	-0.41509738	-0.03815964	-0.00001199	0	0.00000852	-50.51856475	554.59149104	-53.00933256	1.16627562	0	-0.32387865	0	-0.00002678	0	0	-3.99134778	0
41.11000000	-6.25684218	-0.41150677	-0.02537419	-0.00000173	0	0.00000114	-45.42980759	530.35555608	-52.78038867	1.16173588	0	-0.32250639	0	0.00000124	0	0	-3.98629098	0
41.12000000	-6.28768840	-0.40641221	0.04808725	0.00000177	0	-0.00000133	-41.41492904	510.17740006	-52.04766768	1.15720732	0	-0.32115786	0	0.00000806	0	0	-3.98397189	0
41.13000000	-6.29693334	-0.38222038	0.15316157	0.00000188	0	-0.00000137	-38.15745396	494.45986919	-50.78738387	1.15235506	0	-0.31998785	0	0.00000618	0	0	-3.89442397	0
41.14000000	-6.27454021	-0.36686836	0.21964309	0.00000105	0	-0.00000076	-35.53095486	483.41686863	-49.10836816	1.14698908	0	-0.31903740	0	0.00000286	0	0	-3.73711954	0.00000000
41.15000000	-6.24317226	-0.40593693	0.26363126	0.00000035	0	-0.00000025	-33.44001193	477.29393301	-47.05111871	1.14107833	0	-0.31830645	0	0.00000068	0	0	-3.56121205	-0.00000000
41.16000000	-6.22510012	-0.48033309	0.35407975	0.00000001	0	-0.00000000	-31.85866751	476.25663259	-44.92928042	1.13471771	0	-0.31783473	0	-0.00000021	0	0	-3.36477386	0.00000000
41.17000000	-6.20049598	-0.55488974	0.44498224	-0.00000009	0	0.00000006	-30.83412788	480.08758245	-43.11926962	1.12802367	0	-0.31763355	0	-0.00000035	0	0	-3.17917701	-0.00000000
41.18000000	-6.18076485	-0.55303589	0.46151768	-0.00000007	0	0.00000005	-30.13983015	488.02959550	-41.89860494	1.12122388	0	-0.31765523	0	-0.00000022	0	0	-3.04450760	0
41.19000000	-6.17778532	-0.46007516	0.44760986	-0.00000004	0	0.00000003	-29.28802598	499.08234985	-41.50042174	1.11403106	0	-0.31785435	0	-0.00000009	0	0	-2.91825578	0
41.20000000	-6.17554461	-0.36135982	0.38490763	-0.00000001	0	0.00000001	-28.03830981	512.79817377	-41.86246463	1.10619715	0	-0.31814059	0	-0.00000002	0	0	-2.75690965	0
41.21000000	-6.19678352	-0.30912670	0.33639347	0.00000000	0	-0.00000000	-26.59340886	529.21775054	-42.71511452	1.09770065	0	-0.31843553	0	0.00000001	0	0	-2.58135494	0
